<?xml version="1.0" encoding="utf-8"?>
<!-- Generator: Adobe Illustrator 26.0.2, SVG Export Plug-In . SVG Version: 6.00 Build 0)  -->
<svg version="1.1" id="Capa_1" xmlns="http://www.w3.org/2000/svg" xmlns:xlink="http://www.w3.org/1999/xlink" x="0px" y="0px"
	 viewBox="0 0 159 22.9" style="enable-background:new 0 0 159 22.9;" xml:space="preserve">
<style type="text/css">
	.st0{fill:#FFFFFF;}
</style>
<g>
	<polygon class="st0" points="14.1,0.7 14.1,8.9 5.4,8.9 5.4,0.7 0.7,0.7 0.7,22 5.4,22 5.4,12.8 14.1,12.8 14.1,22 18.8,22 
		18.8,0.7 	"/>
	<g>
		<path class="st0" d="M26.4,16.1c0.1,0.6,0.3,1.1,0.6,1.6c0.3,0.5,0.7,0.8,1.2,1.1c0.5,0.3,1.1,0.4,1.8,0.4s1.3-0.1,1.8-0.4
			c0.5-0.3,0.9-0.7,1.2-1.1c0.3-0.5,0.5-1,0.6-1.6c0.1-0.6,0.2-1.2,0.2-1.8s-0.1-1.2-0.2-1.8c-0.1-0.6-0.3-1.1-0.6-1.6
			c-0.3-0.5-0.7-0.8-1.2-1.1c-0.5-0.3-1.1-0.4-1.8-0.4s-1.3,0.1-1.8,0.4c-0.5,0.3-0.9,0.7-1.2,1.1c-0.3,0.5-0.5,1-0.6,1.6
			c-0.1,0.6-0.2,1.2-0.2,1.8S26.3,15.5,26.4,16.1 M22.5,10.9c0.4-1,0.9-1.9,1.6-2.6c0.7-0.7,1.5-1.3,2.5-1.6c1-0.4,2.1-0.6,3.3-0.6
			c1.2,0,2.3,0.2,3.3,0.6c1,0.4,1.8,0.9,2.5,1.6c0.7,0.7,1.2,1.6,1.6,2.6c0.4,1,0.6,2.1,0.6,3.4c0,1.2-0.2,2.4-0.6,3.3
			c-0.4,1-0.9,1.8-1.6,2.6c-0.7,0.7-1.5,1.3-2.5,1.6c-1,0.4-2.1,0.6-3.3,0.6c-1.2,0-2.3-0.2-3.3-0.6c-1-0.4-1.8-0.9-2.5-1.6
			c-0.7-0.7-1.2-1.6-1.6-2.6c-0.4-1-0.6-2.1-0.6-3.3C22,13.1,22.2,11.9,22.5,10.9"/>
		<path class="st0" d="M49.2,6.6v2.8h-3.1V17c0,0.7,0.1,1.2,0.4,1.4c0.2,0.2,0.7,0.4,1.4,0.4c0.2,0,0.5,0,0.7,0c0.2,0,0.4,0,0.6-0.1
			V22c-0.4,0.1-0.8,0.1-1.2,0.1c-0.4,0-0.9,0-1.3,0c-0.7,0-1.3,0-1.9-0.1c-0.6-0.1-1.1-0.3-1.6-0.5c-0.4-0.3-0.8-0.6-1.1-1.1
			c-0.3-0.5-0.4-1.1-0.4-1.9V9.4h-2.6V6.6h2.6V1.9h4.2v4.6H49.2z"/>
		<path class="st0" d="M60.4,10.2c-0.5-0.6-1.3-0.8-2.3-0.8c-0.7,0-1.2,0.1-1.7,0.3c-0.4,0.2-0.8,0.5-1.1,0.9
			c-0.3,0.3-0.5,0.7-0.6,1.1c-0.1,0.4-0.2,0.7-0.2,1h6.9C61.3,11.5,61,10.7,60.4,10.2 M55.6,18.3c0.6,0.6,1.6,0.9,2.7,0.9
			c0.9,0,1.6-0.2,2.2-0.6c0.6-0.4,1-0.9,1.1-1.4h3.7c-0.6,1.9-1.5,3.2-2.7,4c-1.2,0.8-2.7,1.2-4.5,1.2c-1.2,0-2.3-0.2-3.3-0.6
			c-1-0.4-1.8-0.9-2.5-1.7c-0.7-0.7-1.2-1.6-1.6-2.6c-0.4-1-0.6-2.1-0.6-3.3c0-1.2,0.2-2.2,0.6-3.2c0.4-1,0.9-1.9,1.6-2.6
			c0.7-0.7,1.5-1.3,2.5-1.7c1-0.4,2-0.6,3.2-0.6c1.3,0,2.5,0.3,3.4,0.8c1,0.5,1.8,1.2,2.4,2c0.6,0.9,1.1,1.8,1.4,2.9
			c0.3,1.1,0.4,2.2,0.3,3.4H54.6C54.7,16.7,55,17.7,55.6,18.3"/>
	</g>
	<rect x="68.4" y="0.7" class="st0" width="4.2" height="21.3"/>
	<polygon class="st0" points="85.5,6.6 82.3,17.1 82.2,17.1 79,6.6 74.5,6.6 79.8,22 84.5,22 89.8,6.6 	"/>
	<g>
		<path class="st0" d="M100.9,10.2c-0.5-0.6-1.3-0.8-2.3-0.8c-0.7,0-1.2,0.1-1.7,0.3c-0.4,0.2-0.8,0.5-1.1,0.9
			c-0.3,0.3-0.5,0.7-0.6,1.1c-0.1,0.4-0.2,0.7-0.2,1h6.9C101.7,11.5,101.4,10.7,100.9,10.2 M96.1,18.3c0.6,0.6,1.6,0.9,2.7,0.9
			c0.9,0,1.6-0.2,2.2-0.6c0.6-0.4,1-0.9,1.1-1.4h3.7c-0.6,1.9-1.5,3.2-2.8,4c-1.2,0.8-2.7,1.2-4.5,1.2c-1.2,0-2.3-0.2-3.3-0.6
			c-1-0.4-1.8-0.9-2.5-1.7c-0.7-0.7-1.2-1.6-1.6-2.6c-0.4-1-0.6-2.1-0.6-3.3c0-1.2,0.2-2.2,0.6-3.2c0.4-1,0.9-1.9,1.6-2.6
			c0.7-0.7,1.5-1.3,2.5-1.7c1-0.4,2-0.6,3.2-0.6c1.3,0,2.5,0.3,3.4,0.8c1,0.5,1.8,1.2,2.4,2c0.6,0.9,1.1,1.8,1.4,2.9
			c0.3,1.1,0.4,2.2,0.3,3.4H95C95.1,16.7,95.4,17.7,96.1,18.3"/>
		<path class="st0" d="M112.7,6.6v2.9h0.1c0.2-0.5,0.5-0.9,0.8-1.3c0.3-0.4,0.7-0.8,1.2-1c0.4-0.3,0.9-0.5,1.4-0.7
			c0.5-0.2,1-0.2,1.6-0.2c0.3,0,0.6,0,0.9,0.1v3.9c-0.2,0-0.4-0.1-0.7-0.1c-0.3,0-0.5,0-0.8,0c-0.8,0-1.4,0.1-2,0.4
			c-0.5,0.3-1,0.6-1.3,1.1c-0.3,0.4-0.6,1-0.7,1.6c-0.1,0.6-0.2,1.2-0.2,1.9v7h-4.2V6.6H112.7z"/>
		<path class="st0" d="M123.9,18.2c0.2,0.3,0.4,0.6,0.7,0.8c0.3,0.2,0.6,0.4,1,0.5c0.4,0.1,0.8,0.1,1.2,0.1c0.3,0,0.6,0,0.9-0.1
			c0.3-0.1,0.6-0.2,0.9-0.3c0.3-0.1,0.5-0.3,0.7-0.6c0.2-0.2,0.3-0.6,0.3-0.9c0-0.6-0.4-1.1-1.3-1.4c-0.8-0.3-2-0.6-3.5-1
			c-0.6-0.1-1.2-0.3-1.8-0.5c-0.6-0.2-1.1-0.4-1.6-0.7c-0.5-0.3-0.8-0.7-1.1-1.2c-0.3-0.5-0.4-1-0.4-1.7c0-1,0.2-1.8,0.6-2.5
			c0.4-0.6,0.9-1.1,1.5-1.5c0.6-0.4,1.4-0.6,2.2-0.8c0.8-0.1,1.6-0.2,2.5-0.2c0.8,0,1.6,0.1,2.4,0.2c0.8,0.2,1.5,0.4,2.1,0.8
			c0.6,0.4,1.1,0.9,1.5,1.5c0.4,0.6,0.7,1.4,0.7,2.4h-4c-0.1-0.8-0.4-1.4-0.9-1.7c-0.6-0.3-1.2-0.4-2-0.4c-0.2,0-0.5,0-0.8,0
			c-0.3,0-0.5,0.1-0.8,0.2c-0.2,0.1-0.4,0.2-0.6,0.4c-0.2,0.2-0.2,0.4-0.2,0.8c0,0.4,0.1,0.7,0.4,0.9c0.3,0.2,0.6,0.4,1.1,0.6
			c0.4,0.1,1,0.3,1.5,0.4c0.6,0.1,1.2,0.2,1.8,0.4c0.6,0.1,1.2,0.3,1.8,0.5s1.1,0.5,1.6,0.8c0.5,0.3,0.8,0.7,1.1,1.2
			c0.3,0.5,0.4,1.1,0.4,1.8c0,1-0.2,1.9-0.6,2.6c-0.4,0.7-0.9,1.2-1.6,1.7c-0.7,0.4-1.4,0.7-2.3,0.9c-0.8,0.2-1.7,0.3-2.6,0.3
			c-0.9,0-1.8-0.1-2.6-0.3c-0.9-0.2-1.6-0.5-2.3-0.9c-0.7-0.4-1.2-1-1.6-1.7c-0.4-0.7-0.7-1.5-0.7-2.6h4
			C123.6,17.4,123.7,17.8,123.9,18.2"/>
		<path class="st0" d="M145.7,10.2c-0.5-0.6-1.3-0.8-2.3-0.8c-0.7,0-1.2,0.1-1.7,0.3c-0.4,0.2-0.8,0.5-1.1,0.9
			c-0.3,0.3-0.5,0.7-0.6,1.1c-0.1,0.4-0.2,0.7-0.2,1h6.9C146.6,11.5,146.2,10.7,145.7,10.2 M140.9,18.3c0.6,0.6,1.6,0.9,2.7,0.9
			c0.9,0,1.6-0.2,2.2-0.6c0.6-0.4,1-0.9,1.1-1.4h3.7c-0.6,1.9-1.5,3.2-2.7,4c-1.2,0.8-2.7,1.2-4.5,1.2c-1.2,0-2.3-0.2-3.3-0.6
			c-1-0.4-1.8-0.9-2.5-1.7c-0.7-0.7-1.2-1.6-1.6-2.6c-0.4-1-0.6-2.1-0.6-3.3c0-1.2,0.2-2.2,0.6-3.2c0.4-1,0.9-1.9,1.6-2.6
			c0.7-0.7,1.5-1.3,2.5-1.7c1-0.4,2-0.6,3.2-0.6c1.3,0,2.5,0.3,3.4,0.8c1,0.5,1.8,1.2,2.4,2c0.6,0.9,1.1,1.8,1.4,2.9
			c0.3,1.1,0.4,2.2,0.3,3.4h-11.1C139.9,16.7,140.3,17.7,140.9,18.3"/>
	</g>
	<rect x="153.7" y="17.4" class="st0" width="4.7" height="4.6"/>
</g>
</svg>
